<svg id="Layer_1" data-name="Layer 1" xmlns="http://www.w3.org/2000/svg" viewBox="0 0 400 117.21"><defs><style>.cls-1{fill:#39607a;}.cls-2{fill:#ceebf0;}.cls-3{fill:none;}.cls-4{fill:#008fb4;}.cls-5{fill:#58595b;}</style></defs><title>IGC_Logo-Vertical</title><path class="cls-1" d="M183.1,59.61a14.57,14.57,0,0,1-14.49-2.81V81l20.82-10.41A16.24,16.24,0,0,1,183.1,59.61Z"/><path class="cls-1" d="M218,22.73a12.65,12.65,0,0,1,14.05-.1V1.78L208.48,13.55A14.6,14.6,0,0,1,218,22.73Z"/><path class="cls-2" d="M225.07,20.55a12.6,12.6,0,0,0-7.1,2.18,14.6,14.6,0,0,0-9.49-9.18L202,16.77l-11.57,5.79L182,26.81l-1.65.82-11.7,5.85V56.8a14.57,14.57,0,0,0,14.49,2.81,16.24,16.24,0,0,0,6.33,11L212.79,59l2.7-1.35L232,49.34V22.63A12.59,12.59,0,0,0,225.07,20.55Z"/><path class="cls-3" d="M194.33,36.87c-2,0-3.07,1.72-3.07,5,0,4,1.35,5.72,3.36,5.72A3.62,3.62,0,0,0,197.81,46v-7.4A4.11,4.11,0,0,0,194.33,36.87Z"/><path class="cls-4" d="M178.57,28.51a2.95,2.95,0,0,0,5.83-.64,2.92,2.92,0,0,0-.73-1.91Z"/><rect class="cls-4" x="178.86" y="32.43" width="5.16" height="19.63"/><path class="cls-4" d="M197.81,33.55A6.22,6.22,0,0,0,193.66,32C188.8,32,186,36.13,186,42c0,7.33,3.44,10.47,7.63,10.47a6,6,0,0,0,4.15-1.65c0,3-1.08,4-5.12,4.56l1.83,3.89c6.88-.75,8.45-4.08,8.45-10.54V32.43h-5.16Zm0,12.41a3.62,3.62,0,0,1-3.18,1.65c-2,0-3.36-1.68-3.36-5.72,0-3.29,1.08-5,3.07-5a4.11,4.11,0,0,1,3.48,1.68Z"/><path class="cls-4" d="M214.22,47.49c-2.47,0-4.08-2.09-4.08-5.23S211.75,37,214.22,37c2.09,0,3.33,1.16,4.49,2.8l3.4-3.44A8.82,8.82,0,0,0,214.33,32c-5.46,0-9.42,4.22-9.42,10.25s4.08,10.21,9.2,10.21c3.89,0,6.13-1.83,8-4.37L218.85,45C217.51,46.6,216.24,47.49,214.22,47.49Z"/><path class="cls-5" d="M2.32,114.77V92.43H4.81v22.34Z"/><path class="cls-5" d="M19.28,114.77V105c0-3.61-1.28-5.23-4-5.23-2.33,0-4.15,1.56-4.15,5.23v9.8H8.78V98h2.39v2a5.42,5.42,0,0,1,4.63-2.39c3.54,0,5.87,2.07,5.87,6.89v10.21Z"/><path class="cls-5" d="M29.9,93.77c-1,0-1.72.35-1.72,1.76V98h3.29v2H28.18v14.74H25.79V100h-2.3V98h2.3v-2.3c0-3,1.63-4.12,4-4.12a6.17,6.17,0,0,1,2.11.29v2.27A4.5,4.5,0,0,0,29.9,93.77Z"/><path class="cls-5" d="M39.74,115.12c-4.08,0-7.21-3-7.21-8.71s3.25-8.74,7.34-8.74,7.21,2.94,7.21,8.62S43.82,115.12,39.74,115.12Zm.06-15.38c-2.9,0-4.85,2.2-4.85,6.61S36.9,113,39.8,113s4.88-2.3,4.88-6.7S42.7,99.74,39.8,99.74Z"/><path class="cls-5" d="M58.37,100.5a4.73,4.73,0,0,0-2.52-.64c-2.33,0-3.64,1.88-3.64,5.07v9.83H49.82V98h2.39v2.07a4.91,4.91,0,0,1,4.15-2.42,6.41,6.41,0,0,1,2.62.41Z"/><path class="cls-5" d="M80.46,114.77V105c0-3.83-1.18-5.23-3.61-5.23-2.27,0-3.73,1.53-3.73,5.23v9.8H70.73V105c0-3.83-1.28-5.23-3.61-5.23s-3.73,1.53-3.73,5.23v9.8H61V98h2.39v2a4.73,4.73,0,0,1,4.24-2.39,4.88,4.88,0,0,1,4.6,2.87,5.45,5.45,0,0,1,5.07-2.87c3.41,0,5.55,2,5.55,6.89v10.21Z"/><path class="cls-5" d="M95.78,114.77v-2a6.91,6.91,0,0,1-5.23,2.39c-2.62,0-5.36-1.31-5.36-5.36,0-3.77,3.1-5.36,6.41-5.36a9,9,0,0,1,4.18,1v-2c0-2.49-1.18-3.7-3.64-3.7a8.75,8.75,0,0,0-4.56,1.28L86.68,99a12,12,0,0,1,5.62-1.34c3.61,0,5.87,1.53,5.87,5.42v11.68Zm0-7.5a8.12,8.12,0,0,0-4.31-1c-2.46,0-3.92,1.18-3.92,3.29,0,2.49,1.37,3.57,3.41,3.57a5.87,5.87,0,0,0,4.82-2.52Z"/><path class="cls-5" d="M104.42,100v10.91c0,1.5.41,2,1.69,2a5.57,5.57,0,0,0,2.36-.48l-.16,2.07a7.55,7.55,0,0,1-3.09.57c-2.07,0-3.19-1-3.19-3.8V100H100V98H102V92.84l2.39-1.34V98h4.15v2Z"/><path class="cls-5" d="M112.31,95A1.71,1.71,0,1,1,114,93.32,1.7,1.7,0,0,1,112.31,95Zm-1.24,19.75V98h2.39v16.75Z"/><path class="cls-5" d="M123.36,115.12c-4.08,0-7.21-3-7.21-8.71s3.25-8.74,7.34-8.74,7.21,2.94,7.21,8.62S127.44,115.12,123.36,115.12Zm.06-15.38c-2.9,0-4.85,2.2-4.85,6.61s1.95,6.7,4.85,6.7,4.88-2.3,4.88-6.7S126.33,99.74,123.42,99.74Z"/><path class="cls-5" d="M143.94,114.77V105c0-3.61-1.28-5.23-4-5.23-2.33,0-4.15,1.56-4.15,5.23v9.8h-2.39V98h2.39v2a5.42,5.42,0,0,1,4.63-2.39c3.54,0,5.87,2.07,5.87,6.89v10.21Z"/><path class="cls-5" d="M165.64,115.12c-5.46,0-9-4.95-9-11.49s3.73-11.55,9.13-11.55a8.19,8.19,0,0,1,7.12,3.57l-2,1.5c-1.44-1.95-2.78-2.81-5.2-2.81-3.83,0-6.57,3.8-6.57,9.22s2.87,9.29,6.61,9.29,5.78-2.3,5.78-6.67V106h-4v-2.3h6.45v2.17C173.91,112,170.36,115.12,165.64,115.12Z"/><path class="cls-5" d="M183.12,115.12c-4.08,0-7.21-3-7.21-8.71s3.25-8.74,7.34-8.74,7.21,2.94,7.21,8.62S187.21,115.12,183.12,115.12Zm.06-15.38c-2.9,0-4.85,2.2-4.85,6.61s1.95,6.7,4.85,6.7,4.88-2.3,4.88-6.7S186.09,99.74,183.19,99.74Z"/><path class="cls-5" d="M199.2,114.77H197.1L191.1,98h2.55l4.28,13.18.25.8.26-.8L202.71,98h2.49Z"/><path class="cls-5" d="M219.38,107.2H208.21c.22,3.57,1.91,5.84,4.66,5.84a7.46,7.46,0,0,0,4.63-1.6l1.12,1.72a9.93,9.93,0,0,1-6,1.95c-3.06,0-6.8-2.23-6.8-8.81,0-5.33,2.94-8.65,6.92-8.65,4.37,0,6.73,3.45,6.73,8.23A7.33,7.33,0,0,1,219.38,107.2Zm-6.67-7.47c-2.49,0-4.21,1.79-4.5,5.52h9C217.05,102,215.65,99.74,212.71,99.74Z"/><path class="cls-5" d="M230.69,100.5a4.73,4.73,0,0,0-2.52-.64c-2.33,0-3.64,1.88-3.64,5.07v9.83h-2.39V98h2.39v2.07a4.91,4.91,0,0,1,4.15-2.42,6.41,6.41,0,0,1,2.62.41Z"/><path class="cls-5" d="M243.82,114.77V105c0-3.61-1.28-5.23-4-5.23-2.33,0-4.15,1.56-4.15,5.23v9.8h-2.39V98h2.39v2a5.42,5.42,0,0,1,4.63-2.39c3.54,0,5.87,2.07,5.87,6.89v10.21Z"/><path class="cls-5" d="M259.1,114.77v-2a6.91,6.91,0,0,1-5.23,2.39c-2.62,0-5.36-1.31-5.36-5.36,0-3.77,3.1-5.36,6.41-5.36a9,9,0,0,1,4.18,1v-2c0-2.49-1.18-3.7-3.64-3.7a8.75,8.75,0,0,0-4.56,1.28L250,99a12,12,0,0,1,5.62-1.34c3.61,0,5.87,1.53,5.87,5.42v11.68Zm0-7.5a8.12,8.12,0,0,0-4.31-1c-2.46,0-3.92,1.18-3.92,3.29,0,2.49,1.37,3.57,3.41,3.57a5.87,5.87,0,0,0,4.82-2.52Z"/><path class="cls-5" d="M275.47,114.77V105c0-3.61-1.28-5.23-4-5.23-2.33,0-4.15,1.56-4.15,5.23v9.8H265V98h2.39v2A5.42,5.42,0,0,1,272,97.66c3.54,0,5.87,2.07,5.87,6.89v10.21Z"/><path class="cls-5" d="M291.53,101.43a5.57,5.57,0,0,0-4-1.69c-2.62,0-4.63,2.36-4.63,6.54s1.76,6.77,4.72,6.77a5.19,5.19,0,0,0,3.86-1.79l1.44,1.53a7.08,7.08,0,0,1-5.39,2.33c-3.67,0-7.05-2.81-7.05-8.65,0-6.19,3.7-8.81,7.21-8.81a7.79,7.79,0,0,1,5.3,2Z"/><path class="cls-5" d="M307.49,107.2H296.32c.22,3.57,1.91,5.84,4.66,5.84a7.46,7.46,0,0,0,4.63-1.6l1.12,1.72a9.93,9.93,0,0,1-6,1.95c-3.06,0-6.8-2.23-6.8-8.81,0-5.33,2.94-8.65,6.92-8.65,4.37,0,6.73,3.45,6.73,8.23A7.33,7.33,0,0,1,307.49,107.2Zm-6.67-7.47c-2.49,0-4.21,1.79-4.5,5.52h9C305.16,102,303.75,99.74,300.82,99.74Z"/><path class="cls-5" d="M326.16,115.12c-5.46,0-9-4.95-9-11.49s3.73-11.55,9.13-11.55a8.19,8.19,0,0,1,7.12,3.57l-2,1.5c-1.44-1.95-2.78-2.81-5.2-2.81-3.83,0-6.57,3.8-6.57,9.22s2.84,9.29,6.61,9.29a6.61,6.61,0,0,0,5.52-2.94l1.72,1.5A8.78,8.78,0,0,1,326.16,115.12Z"/><path class="cls-5" d="M335.95,114.77V92.84l2.39-1.34v23.26Z"/><path class="cls-5" d="M348.34,115.12c-4.08,0-7.21-3-7.21-8.71s3.25-8.74,7.34-8.74,7.21,2.94,7.21,8.62S352.42,115.12,348.34,115.12Zm.06-15.38c-2.9,0-4.85,2.2-4.85,6.61s1.95,6.7,4.85,6.7,4.88-2.3,4.88-6.7S351.31,99.74,348.4,99.74Z"/><path class="cls-5" d="M368.76,114.77v-2a5.42,5.42,0,0,1-4.63,2.39c-3.54,0-5.87-2.07-5.87-6.89V98h2.39v9.8c0,3.61,1.28,5.23,4,5.23,2.33,0,4.15-1.56,4.15-5.23V98h2.39v16.75Z"/><path class="cls-5" d="M385,114.77v-2a6.7,6.7,0,0,1-5,2.39c-3.35,0-6-2.55-6-8.46s2.81-9,6.32-9A6,6,0,0,1,385,99.9V92.84l2.39-1.34v23.26Zm0-12.51a5.48,5.48,0,0,0-4.53-2.52c-2.78,0-4.15,2.39-4.15,6.89,0,4.21,1.6,6.41,4.24,6.41a5.69,5.69,0,0,0,4.44-2.43Z"/><path class="cls-5" d="M391.47,92.24V97h-.58V92.24h-1.54v-.53H393v.53Z"/><path class="cls-5" d="M397.75,97V92.84c-.05.2-.2.59-.31.87L396,97.09l-1.38-3.38a8.28,8.28,0,0,1-.31-.87V97h-.56V91.71h.65l1.24,3.14c.13.31.31.8.37,1,.07-.22.25-.71.38-1l1.25-3.14h.64V97Z"/></svg>